PathFileType	3	(X/Y/Z)	D:\VICON_DB\Goncalves\Pilot01\09-03-2026\static_01.trc
DataRate	CameraRate	NumFrames	NumMarkers	Units	OrigDataRate	OrigDataStartFrame	OrigNumFrames
200.0	200.0	4	40	mm	200.0	121	321
Frame#	Time	LASI			RASI			LPSI			RPSI			LTHI			LTHAP			LTHAD			LKNE			LKNM			LTIB			LTIAP			LTIAD			LANK			LMED			LHEE			LTOE			LFMH			LSMH			LVMH			RTHI			RTHAP			RTHAD			RKNE			RKNM			RTIB			RTIAP			RTIAD			RANK			RMED			RHEE			RTOE			RFMH			RSMH			RVMH			RHJC			LHJC			RKJC			LKJC			RAJC			LAJC
		X1	Y1	Z1	X2	Y2	Z2	X3	Y3	Z3	X4	Y4	Z4	X5	Y5	Z5	X6	Y6	Z6	X7	Y7	Z7	X8	Y8	Z8	X9	Y9	Z9	X10	Y10	Z10	X11	Y11	Z11	X12	Y12	Z12	X13	Y13	Z13	X14	Y14	Z14	X15	Y15	Z15	X16	Y16	Z16	X17	Y17	Z17	X18	Y18	Z18	X19	Y19	Z19	X20	Y20	Z20	X21	Y21	Z21	X22	Y22	Z22	X23	Y23	Z23	X24	Y24	Z24	X25	Y25	Z25	X26	Y26	Z26	X27	Y27	Z27	X28	Y28	Z28	X29	Y29	Z29	X30	Y30	Z30	X31	Y31	Z31	X32	Y32	Z32	X33	Y33	Z33	X34	Y34	Z34	X35	Y35	Z35	X36	Y36	Z36	X37	Y37	Z37	X38	Y38	Z38	X39	Y39	Z39	X40	Y40	Z40
121	0.600000	121.736050	904.315490	-1064.476100	118.204800	905.492860	-1329.735000	298.355010	955.624020	-1187.000000	312.721440	954.153200	-1229.445400	126.665700	694.526000	-1032.606100	144.879900	768.192870	-1018.839700	170.670040	630.318850	-1008.681900	222.863600	475.000760	-1024.640500	200.479280	464.891420	-1152.735800	259.607880	281.605160	-1004.567000	202.649580	357.409270	-1060.242700	217.622410	254.995250	-1032.537600	272.800660	70.200188	-1027.258100	239.585460	81.062149	-1107.895900	315.124180	61.567875	-1080.400900	191.325270	71.839119	-1047.491700	134.228640	44.954029	-1073.122200	133.866410	39.326839	-1032.881000	149.185380	25.639175	-993.046260	162.119800	626.457210	-1381.836700	125.826880	752.852110	-1358.159400	109.285870	661.286320	-1336.025000	209.655500	490.985990	-1364.796400	207.025990	434.496190	-1244.543000	228.411960	296.426880	-1383.347400	189.272430	346.736240	-1328.336300	194.204330	265.471470	-1331.238200	269.056030	62.047302	-1356.263800	233.741500	90.094376	-1276.248700	305.171940	57.765789	-1314.130200	176.748980	69.154411	-1340.438100	126.243480	49.421173	-1315.382100	123.976260	40.590523	-1351.422000	139.994130	20.401751	-1388.750400	196.373924	832.516635	-1293.297360	198.898892	831.674774	-1103.627923	208.340745	462.741090	-1304.669700	211.671440	469.946090	-1088.688150	251.398765	76.070839	-1316.256250	256.193060	75.631169	-1067.577000
122	0.605000	121.756990	904.324710	-1064.438000	118.214610	905.457580	-1329.665500	298.510990	955.757080	-1186.920000	312.719880	954.167660	-1229.414900	126.684220	694.544130	-1032.574200	144.882600	768.219360	-1018.793800	170.687380	630.333190	-1008.648700	222.871440	475.019230	-1024.610100	200.498840	464.890720	-1152.706700	259.604860	281.609470	-1004.546800	202.680010	357.427400	-1060.196000	217.632610	255.001690	-1032.515700	273.086730	70.253845	-1027.103300	239.572300	81.065742	-1107.898700	315.120240	61.581314	-1080.421400	191.493820	71.843117	-1047.415200	134.245450	44.951778	-1073.106700	133.872450	39.315552	-1032.892800	149.178450	25.666971	-993.026310	162.129970	626.457340	-1381.770300	125.755460	752.882200	-1358.174800	109.263620	661.291020	-1335.992300	209.653350	490.957000	-1364.756500	207.085750	434.492310	-1244.503200	228.423200	296.420620	-1383.311200	189.273940	346.738680	-1328.329600	194.213350	265.475100	-1331.214600	269.057400	62.040722	-1356.259600	233.750990	90.096054	-1276.242100	305.161680	57.773888	-1314.150600	176.739300	69.150955	-1340.460900	126.252110	49.437714	-1315.361100	123.989570	40.592651	-1351.417800	139.913450	20.532978	-1388.862400	196.428136	832.529795	-1293.224795	198.961085	831.719746	-1103.576080	208.369550	462.724655	-1304.629850	211.685140	469.954975	-1088.658400	251.404195	76.068388	-1316.250850	256.329515	75.659794	-1067.501000
123	0.610000	121.745150	904.325990	-1064.391500	118.224650	905.444210	-1329.585300	298.808990	955.749080	-1186.480100	312.745640	954.186770	-1229.363500	126.712010	694.542720	-1032.525300	144.898270	768.235410	-1018.739300	170.712650	630.351930	-1008.618800	222.893550	475.031490	-1024.574500	200.506470	464.892940	-1152.688400	259.609410	281.621920	-1004.537600	202.695310	357.455380	-1060.196800	217.641920	255.002790	-1032.518200	272.729710	70.336136	-1027.231700	239.564790	81.070404	-1107.927700	315.111330	61.585285	-1080.430100	191.476970	71.831635	-1047.437300	134.242000	44.959167	-1073.121300	133.886610	39.318184	-1032.890700	149.183590	25.669535	-993.043270	162.101650	626.457820	-1381.749600	125.755710	752.896850	-1358.117700	109.240230	661.294800	-1335.946400	209.658830	490.950870	-1364.722000	207.045640	434.480990	-1244.479700	228.435680	296.409150	-1383.267700	189.256770	346.747710	-1328.294300	194.216660	265.477810	-1331.189200	269.046330	62.040730	-1356.250500	233.754270	90.114548	-1276.242600	305.158450	57.770473	-1314.159300	176.732210	69.170319	-1340.440300	126.267390	49.410789	-1315.349200	123.994450	40.638012	-1351.448000	139.670870	20.656862	-1389.148400	196.456174	832.525918	-1293.140323	198.973503	831.726336	-1103.513831	208.352235	462.715930	-1304.600850	211.700010	469.962215	-1088.631450	251.400300	76.077639	-1316.246550	256.147250	75.703270	-1067.579700
124	0.615000	121.751850	904.334410	-1064.359100	118.214340	905.445130	-1329.534700	298.728030	955.700010	-1186.490100	312.707490	954.183960	-1229.349600	126.714000	694.551270	-1032.487900	144.924970	768.241030	-1018.670900	170.746480	630.348630	-1008.561700	222.927730	475.049410	-1024.541500	200.530780	464.895110	-1152.651200	259.624390	281.628720	-1004.517300	202.727170	357.429140	-1060.184200	217.661640	255.016680	-1032.498500	272.724880	70.309746	-1027.228600	239.519610	81.111610	-1107.956200	315.117000	61.590618	-1080.465200	191.526260	71.830582	-1047.396600	134.239070	44.968342	-1073.135600	133.883070	39.318401	-1032.907500	149.182210	25.678534	-993.042850	162.092360	626.478030	-1381.705000	125.761540	752.849240	-1358.058800	109.219520	661.325740	-1335.905000	209.648090	490.952510	-1364.677500	206.990970	434.533540	-1244.463600	228.436740	296.409520	-1383.247800	189.247570	346.731870	-1328.269400	194.151890	265.502660	-1331.212800	269.046170	62.059868	-1356.264900	233.747940	90.112183	-1276.237700	305.144650	57.782650	-1314.171400	176.736150	69.168602	-1340.430200	126.266600	49.420547	-1315.354200	123.984540	40.648544	-1351.450800	139.922790	20.551577	-1388.877300	196.427035	832.523348	-1293.095567	198.956540	831.729125	-1103.481098	208.319530	462.743025	-1304.570550	211.729255	469.972260	-1088.596350	251.397055	76.086026	-1316.251300	256.122245	75.710678	-1067.592400
